<svg fill="none" height="6" viewBox="0 0 6 6" width="6" xmlns="http://www.w3.org/2000/svg">
    <path
        d="M3.87374 1.62374C3.94209 1.5554 3.94209 1.4446 3.87374 1.37626C3.8054 1.30791 3.6946 1.30791 3.62626 1.37626L3.87374 1.62374ZM2.25 3L2.12626 2.87626L2.00251 3L2.12626 3.12374L2.25 3ZM3.62626 4.62374C3.6946 4.69209 3.8054 4.69209 3.87374 4.62374C3.94209 4.5554 3.94209 4.4446 3.87374 4.37626L3.62626 4.62374ZM3.62626 1.37626L2.12626 2.87626L2.37374 3.12374L3.87374 1.62374L3.62626 1.37626ZM2.12626 3.12374L3.62626 4.62374L3.87374 4.37626L2.37374 2.87626L2.12626 3.12374Z"
        fill="#222222" />
</svg>
