<svg width="6" height="6" viewBox="0 0 6 6" fill="none" xmlns="http://www.w3.org/2000/svg">
<path d="M1.61196 2.24235C1.69055 1.53508 2.28837 0.999996 3 0.999996V0.999996C3.71163 0.999996 4.30945 1.53508 4.38804 2.24235L4.45099 2.80891C4.48328 3.09955 4.57788 3.3798 4.72834 3.63056L4.87284 3.8714C4.87351 3.87252 4.87385 3.87308 4.87408 3.87346C5.03871 4.14921 4.84049 4.4993 4.51934 4.5C4.51889 4.5 4.51824 4.5 4.51694 4.5H1.48306C1.48176 4.5 1.48111 4.5 1.48066 4.5C1.15951 4.4993 0.961286 4.14921 1.12592 3.87346C1.12615 3.87308 1.12649 3.87252 1.12716 3.8714L1.27166 3.63056C1.42212 3.3798 1.51672 3.09955 1.54901 2.80891L1.61196 2.24235Z" stroke="#222222" stroke-width="0.35"/>
<path d="M2.27556 4.60146C2.31829 4.78752 2.41245 4.95192 2.54343 5.06918C2.67442 5.18644 2.8349 5.25 3 5.25C3.1651 5.25 3.32559 5.18644 3.45657 5.06918C3.58756 4.95192 3.68172 4.78752 3.72445 4.60146" stroke="#222222" stroke-width="0.35" stroke-linecap="round"/>
</svg>
