<svg width="6" height="6" viewBox="0 0 6 6" fill="none" xmlns="http://www.w3.org/2000/svg">
<path fill-rule="evenodd" clip-rule="evenodd" d="M2.40987 0.88663L1.78589 2.03059L3.15176 3.39647L2.84823 4.15529L3.91058 3.2447L2.69647 2.03059L3.10661 1.51862C3.1286 1.50146 3.14702 1.4782 3.15936 1.44883C3.56602 0.48058 4.86112 0.301239 5.5156 1.12254L5.63344 1.27043C6.19675 1.97732 6.10053 3.00304 5.4156 3.59284L3.17244 5.52445C3.10282 5.5844 3.068 5.61438 3.02775 5.62187C3.00941 5.62528 2.99059 5.62528 2.97225 5.62187C2.932 5.61438 2.89718 5.5844 2.82756 5.52445L0.5844 3.59284C-0.100532 3.00304 -0.196746 1.97732 0.366556 1.27043L0.4844 1.12254C0.980168 0.500404 1.84353 0.452444 2.40987 0.88663Z" fill="#222222"/>
</svg>
