<svg width="7" height="7" viewBox="0 0 7 7" fill="none" xmlns="http://www.w3.org/2000/svg">
<path d="M5.15405 4.04294L5.8209 4.70979C5.91981 4.8087 5.91981 4.96908 5.8209 5.06799C5.28612 5.60277 4.43948 5.66294 3.83444 5.20916L3.52674 4.97839C2.95625 4.55052 2.44948 4.04375 2.02161 3.47326L1.79084 3.16556C1.33706 2.56052 1.39723 1.71389 1.93201 1.1791C2.03092 1.08019 2.1913 1.08019 2.29021 1.1791L2.95706 1.84595C3.1035 1.99239 3.1035 2.22983 2.95706 2.37628L2.74215 2.59118C2.69707 2.63626 2.6859 2.70513 2.71441 2.76215C3.04404 3.4214 3.5786 3.95596 4.23785 4.28559C4.29487 4.3141 4.36374 4.30293 4.40882 4.25785L4.62372 4.04294C4.77017 3.8965 5.00761 3.8965 5.15405 4.04294Z" stroke="#222222" stroke-width="0.375"/>
</svg>
