<svg width="6" height="6" viewBox="0 0 6 6" fill="none" xmlns="http://www.w3.org/2000/svg">
<path d="M0.360519 0.812142L0.83139 0.812142C1.01263 0.812142 1.10325 0.812142 1.17538 0.857834C1.24752 0.903527 1.28624 0.985456 1.36369 1.14931L1.52943 1.5" stroke="#222222" stroke-width="0.353252" stroke-linecap="round"/>
<path d="M5.11687 4.58145H2.33527C2.29224 4.58145 2.27072 4.58145 2.25439 4.57962C2.08142 4.56026 1.96293 4.39585 1.99925 4.22563C2.00268 4.20957 2.00948 4.18915 2.02309 4.14833V4.14833C2.0382 4.103 2.04576 4.08033 2.0541 4.06033C2.13956 3.85556 2.33288 3.71623 2.55416 3.69991C2.57577 3.69832 2.59967 3.69832 2.64745 3.69832H4.23374" stroke="#222222" stroke-width="0.353252" stroke-linecap="round" stroke-linejoin="round"/>
<path d="M4.13916 3.69832H3.24392C2.86734 3.69832 2.67906 3.69832 2.53159 3.60108C2.38413 3.50384 2.30996 3.33078 2.16162 2.98465L1.58434 1.63768H4.75931C5.31108 1.63768 5.58697 1.63768 5.69102 1.81699C5.79508 1.99629 5.6582 2.23583 5.38444 2.7149L5.16152 3.10502C4.9961 3.39451 4.91339 3.53925 4.77633 3.61878C4.63928 3.69832 4.47257 3.69832 4.13916 3.69832Z" stroke="#222222" stroke-width="0.353252" stroke-linecap="round"/>
<circle cx="4.96968" cy="5.31739" r="0.294377" fill="#222222"/>
<circle cx="2.61466" cy="5.31739" r="0.294377" fill="#222222"/>
</svg>
