<svg width="6" height="6" viewBox="0 0 6 6" fill="none" xmlns="http://www.w3.org/2000/svg">
<path d="M2.34056 3.375H2.13818C1.67775 3.375 1.44754 3.375 1.38002 3.23134C1.3125 3.08768 1.4594 2.91043 1.75322 2.55594L2.90465 1.16668C3.04685 0.995107 3.11795 0.909321 3.17709 0.932895C3.23624 0.95647 3.22882 1.06764 3.214 1.28999L3.16055 2.09174C3.14389 2.34164 3.13556 2.46659 3.20966 2.5458C3.28376 2.625 3.40899 2.625 3.65944 2.625H3.75584C4.19837 2.625 4.41963 2.625 4.48833 2.76464C4.55703 2.90428 4.422 3.07957 4.15194 3.43013L4.15194 3.43013L3.10157 4.79363C2.95799 4.98001 2.8862 5.0732 2.82552 5.05026C2.76485 5.02732 2.77267 4.90994 2.78832 4.67519L2.83945 3.90826C2.85611 3.65836 2.86444 3.53341 2.79034 3.4542C2.71624 3.375 2.59101 3.375 2.34056 3.375Z" stroke="#222222" stroke-width="0.35"/>
</svg>
