<svg width="20" height="20" viewBox="0 0 20 20" fill="none" xmlns="http://www.w3.org/2000/svg">
<g clip-path="url(#clip0_72_2)">
<path d="M16.8099 9.23075C17.1425 9.56337 17.1425 10.1026 16.8099 10.4353L15.5464 11.6988C15.2137 12.0314 14.6745 12.0314 14.3418 11.6988L9.75752 7.11444L12.2255 4.64643L16.8099 9.23075Z" fill="#0095FF"/>
<path d="M9.93748 7.29299L10.419 7.77451C10.419 7.77451 10.2152 7.56117 9.93748 7.56319C9.66428 7.56518 9.45596 7.77451 9.45596 7.77451L9.93748 7.29299Z" fill="#0095FF"/>
<path d="M12.4043 4.8252L12.8858 4.34368C12.8858 4.34368 12.6848 4.54751 12.6868 4.8252C12.6888 5.0984 12.8858 5.30672 12.8858 5.30672L12.4043 4.8252Z" fill="#0095FF"/>
<path d="M7.21939 10.0095L7.70091 9.52801C7.70091 9.52801 7.43763 9.73184 7.43966 10.0095C7.44165 10.2827 7.70091 10.4911 7.70091 10.4911L7.21939 10.0095Z" fill="#F9F9F9"/>
<path d="M3.38003 10.8048C2.93715 10.362 2.93715 9.64391 3.38003 9.20103L4.90458 7.67647L14.5517 17.3236C14.9946 17.7665 14.9946 18.4845 14.5517 18.9274L13.8291 19.6501C13.3862 20.0929 12.6681 20.0929 12.2253 19.6501L3.38003 10.8048Z" fill="#F9F9F9"/>
<path d="M12.2254 0.355613C12.6683 -0.0872655 13.3864 -0.0872649 13.8292 0.355614L14.5519 1.07827C14.9948 1.52115 14.9948 2.23919 14.5519 2.68207L4.90474 12.3292L3.38018 10.8047C2.93731 10.3618 2.93731 9.64375 3.38018 9.20087L12.2254 0.355613Z" fill="#F9F9F9"/>
<path d="M14.4856 8.10715C14.8182 7.77453 15.3575 7.77453 15.6902 8.10715L16.8121 9.22908C17.1447 9.5617 17.1447 10.101 16.8121 10.4336L12.1213 15.1243L9.79489 12.7979L14.4856 8.10715Z" fill="#F9F9F9"/>
<path d="M12.2324 15.0137L12.7139 14.5322C12.7139 14.5322 12.5031 14.736 12.5052 15.0137C12.5071 15.2869 12.7139 15.4952 12.7139 15.4952L12.2324 15.0137Z" fill="#F9F9F9"/>
<path d="M9.91016 12.6875L9.42864 12.206C9.42864 12.206 9.63247 12.41 9.91016 12.4079C10.1834 12.4059 10.3917 12.206 10.3917 12.206L9.91016 12.6875Z" fill="#F9F9F9"/>
</g>
<defs>
<clipPath id="clip0_72_2">
<rect width="20" height="20" fill="white"/>
</clipPath>
</defs>
</svg>
