<svg width="7" height="8" viewBox="0 0 7 8" fill="none" xmlns="http://www.w3.org/2000/svg">
<mask id="path-2-inside-1_44_49" fill="white">
<path d="M4.01594 0.545402L6.07956 1.44059C6.22513 1.50374 6.31907 1.64756 6.31837 1.80624L6.30919 3.88992C6.30581 4.65856 5.93143 5.37824 5.304 5.82225L3.98093 6.75852C3.70422 6.95434 3.33366 6.95271 3.05869 6.75446L1.74392 5.80657C1.12042 5.35705 0.752397 4.6341 0.755782 3.86547L0.764958 1.78179C0.765657 1.62311 0.860854 1.48011 1.00698 1.41825L3.0784 0.541273C3.37831 0.4143 3.71716 0.415792 4.01594 0.545402Z"/>
</mask>
<path d="M4.01594 0.545402L6.07956 1.44059C6.22513 1.50374 6.31907 1.64756 6.31837 1.80624L6.30919 3.88992C6.30581 4.65856 5.93143 5.37824 5.304 5.82225L3.98093 6.75852C3.70422 6.95434 3.33366 6.95271 3.05869 6.75446L1.74392 5.80657C1.12042 5.35705 0.752397 4.6341 0.755782 3.86547L0.764958 1.78179C0.765657 1.62311 0.860854 1.48011 1.00698 1.41825L3.0784 0.541273C3.37831 0.4143 3.71716 0.415792 4.01594 0.545402Z" fill="#343434"/>
<path d="M6.07956 1.44059L5.85764 1.95215L5.85764 1.95215L6.07956 1.44059ZM4.01594 0.545402L4.23786 0.0338362L4.23786 0.0338362L4.01594 0.545402ZM3.0784 0.541273L3.2958 1.05477L3.2958 1.05477L3.0784 0.541273ZM1.00698 1.41825L1.22438 1.93175L1.22438 1.93175L1.00698 1.41825ZM3.98093 6.75852L4.30304 7.2137L4.30304 7.2137L3.98093 6.75852ZM5.304 5.82225L4.98188 5.36706L4.98188 5.36707L5.304 5.82225ZM6.30919 3.88992L5.75157 3.88747L6.30919 3.88992ZM6.31837 1.80624L6.87599 1.8087L6.31837 1.80624ZM1.74392 5.80657L2.07003 5.35424L2.07003 5.35424L1.74392 5.80657ZM3.05869 6.75446L3.3848 6.30213L3.38479 6.30213L3.05869 6.75446ZM6.30147 0.929021L4.23786 0.0338362L3.79403 1.05697L5.85764 1.95215L6.30147 0.929021ZM2.861 0.0277727L0.789579 0.904748L1.22438 1.93175L3.2958 1.05477L2.861 0.0277727ZM4.30304 7.2137L5.62611 6.27743L4.98188 5.36707L3.65882 6.30334L4.30304 7.2137ZM6.86681 3.89238L6.87599 1.8087L5.76075 1.80379L5.75157 3.88747L6.86681 3.89238ZM0.207338 1.77933L0.198162 3.86301L1.3134 3.86792L1.32258 1.78424L0.207338 1.77933ZM1.41781 6.25889L2.73258 7.20679L3.38479 6.30213L2.07003 5.35424L1.41781 6.25889ZM0.198162 3.86301C0.193984 4.81173 0.648236 5.70406 1.41781 6.25889L2.07003 5.35424C1.59261 5.01004 1.31081 4.45647 1.3134 3.86792L0.198162 3.86301ZM5.62611 6.27743C6.40054 5.7294 6.86263 4.8411 6.86681 3.89238L5.75157 3.88747C5.74898 4.47602 5.46231 5.02709 4.98188 5.36706L5.62611 6.27743ZM4.23786 0.0338362C3.79907 -0.156506 3.30145 -0.158698 2.861 0.0277728L3.2958 1.05477C3.45518 0.987298 3.63525 0.988091 3.79403 1.05697L4.23786 0.0338362ZM3.65882 6.30334C3.5766 6.36152 3.4665 6.36104 3.3848 6.30213L2.73258 7.20678C3.20083 7.54437 3.83184 7.54715 4.30304 7.2137L3.65882 6.30334ZM5.85764 1.95215C5.79858 1.92653 5.76046 1.86817 5.76075 1.80379L6.87599 1.8087C6.87767 1.42696 6.65169 1.08094 6.30147 0.929021L5.85764 1.95215ZM0.789579 0.904747C0.438039 1.05358 0.20902 1.39759 0.207338 1.77933L1.32258 1.78424C1.32229 1.84863 1.28367 1.90665 1.22438 1.93175L0.789579 0.904747Z" fill="#00AEFF" mask="url(#path-2-inside-1_44_49)"/>
<g clip-path="url(#clip0_44_49)">
<path d="M4.62889 3.33728C4.68813 3.39704 4.6877 3.4935 4.62795 3.55273L4.40036 3.77833C4.3406 3.83756 4.24414 3.83713 4.18491 3.77738L3.36729 2.95252L3.81127 2.51243L4.62889 3.33728Z" fill="#00AEFF"/>
<path d="M3.40081 2.98513L3.48668 3.07175C3.48668 3.07175 3.45034 3.03338 3.4006 3.03352C3.35167 3.03367 3.31419 3.07099 3.31419 3.07099L3.40081 2.98513Z" fill="#00AEFF"/>
<path d="M3.8441 2.54571L3.93073 2.45985C3.93073 2.45985 3.89456 2.4962 3.89471 2.54594C3.89485 2.59487 3.92997 2.63234 3.92997 2.63234L3.8441 2.54571Z" fill="#00AEFF"/>
<path d="M2.91256 3.46882L2.99918 3.38296C2.99918 3.38296 2.95187 3.41926 2.95201 3.469C2.95215 3.51793 2.99842 3.55545 2.99842 3.55545L2.91256 3.46882Z" fill="white"/>
<path d="M2.22523 3.60811C2.14636 3.52854 2.14693 3.40011 2.2265 3.32124L2.5004 3.04974L4.2184 4.78294C4.29727 4.8625 4.2967 4.99094 4.21714 5.06981L4.0873 5.1985C4.00773 5.27737 3.8793 5.27681 3.80043 5.19724L2.22523 3.60811Z" fill="white"/>
<path d="M3.81573 1.74601C3.89529 1.66714 4.02373 1.66771 4.1026 1.74727L4.23129 1.87711C4.31016 1.95667 4.3096 2.08511 4.23003 2.16398L2.49683 3.88198L2.22533 3.60808C2.14646 3.52852 2.14702 3.40008 2.22659 3.32121L3.81573 1.74601Z" fill="white"/>
<path d="M4.21384 3.13432C4.27359 3.07509 4.37006 3.07551 4.42929 3.13527L4.62964 3.33739C4.68887 3.39715 4.68845 3.49361 4.62869 3.55284L3.78469 4.38944L3.36984 3.97092L4.21384 3.13432Z" fill="white"/>
<path d="M3.80538 4.36799L3.892 4.28212C3.892 4.28212 3.85408 4.31847 3.85422 4.3682C3.85436 4.41714 3.89124 4.45461 3.89124 4.45461L3.80538 4.36799Z" fill="white"/>
<path d="M3.39191 3.94999L3.30604 3.86337C3.30604 3.86337 3.34239 3.90006 3.39213 3.89992C3.44106 3.89978 3.47853 3.86413 3.47853 3.86413L3.39191 3.94999Z" fill="white"/>
</g>
<defs>
<clipPath id="clip0_44_49">
<rect width="3.57746" height="3.57746" fill="white" transform="translate(1.62932 1.67278) rotate(0.252318)"/>
</clipPath>
</defs>
</svg>
