<svg width="6" height="6" viewBox="0 0 6 6" fill="none" xmlns="http://www.w3.org/2000/svg">
<rect x="3.25" y="3.5" width="0.5" height="0.5" rx="0.25" fill="#222222"/>
<path d="M2.5 3.5H1.5" stroke="#222222" stroke-width="0.35" stroke-linecap="round"/>
<path d="M2 3L2 4" stroke="#222222" stroke-width="0.35" stroke-linecap="round"/>
<rect x="4" y="3" width="0.5" height="0.5" rx="0.25" fill="#222222"/>
<path d="M3.5 2V2C3.5 1.89581 3.5 1.84372 3.49136 1.79786C3.46138 1.63865 3.35612 1.50384 3.20894 1.43614C3.16654 1.41664 3.116 1.404 3.01493 1.37873L3 1.375C2.8847 1.34618 2.82706 1.33176 2.77926 1.30825C2.64215 1.24079 2.54341 1.11433 2.51122 0.964946C2.5 0.912877 2.5 0.853455 2.5 0.734612V0.5" stroke="#222222" stroke-width="0.35" stroke-linecap="round"/>
<path d="M0.75 3.5C0.75 2.8603 0.75 2.54045 0.904985 2.3201C0.944885 2.26338 0.99143 2.2126 1.04343 2.16907C1.24541 2 1.53861 2 2.125 2H3.875C4.46139 2 4.75459 2 4.95657 2.16907C5.00857 2.2126 5.05511 2.26338 5.09502 2.3201C5.25 2.54045 5.25 2.8603 5.25 3.5C5.25 4.1397 5.25 4.45955 5.09502 4.6799C5.05511 4.73662 5.00857 4.7874 4.95657 4.83093C4.75459 5 4.46139 5 3.875 5H2.125C1.53861 5 1.24541 5 1.04343 4.83093C0.99143 4.7874 0.944885 4.73662 0.904985 4.6799C0.75 4.45955 0.75 4.1397 0.75 3.5Z" stroke="#222222" stroke-width="0.35"/>
</svg>
