<svg width="6" height="6" viewBox="0 0 6 6" fill="none" xmlns="http://www.w3.org/2000/svg">
<path d="M0.75 2.5C0.75 2.2643 0.75 2.14645 0.823223 2.07323C0.896447 2 1.0143 2 1.25 2H4.75C4.9857 2 5.10355 2 5.17678 2.07323C5.25 2.14645 5.25 2.2643 5.25 2.5V2.875C5.25 2.99149 5.25 3.04973 5.23097 3.09567C5.2056 3.15693 5.15693 3.2056 5.09567 3.23097C5.04973 3.25 4.99149 3.25 4.875 3.25V3.25C4.75851 3.25 4.70027 3.25 4.65433 3.26903C4.59307 3.29441 4.5444 3.34307 4.51903 3.40433C4.5 3.45027 4.5 3.50852 4.5 3.625V4.5C4.5 4.7357 4.5 4.85356 4.42678 4.92678C4.35355 5 4.2357 5 4 5H2C1.7643 5 1.64645 5 1.57322 4.92678C1.5 4.85356 1.5 4.7357 1.5 4.5V3.625C1.5 3.50852 1.5 3.45027 1.48097 3.40433C1.4556 3.34307 1.40693 3.29441 1.34567 3.26903C1.29973 3.25 1.24149 3.25 1.125 3.25V3.25C1.00851 3.25 0.950272 3.25 0.904329 3.23097C0.843072 3.2056 0.794404 3.15693 0.76903 3.09567C0.75 3.04973 0.75 2.99149 0.75 2.875V2.5Z" stroke="#222222" stroke-width="0.351429"/>
<path d="M1.25 3.25H4.75" stroke="#222222" stroke-width="0.351429" stroke-linecap="round"/>
<path d="M3 1.75L3 5" stroke="#222222" stroke-width="0.351429" stroke-linecap="round"/>
<path d="M3 1.75L2.78036 1.53036C2.51378 1.26378 2.1888 1.06293 1.83115 0.943717V0.943717C1.54525 0.848416 1.25 1.06122 1.25 1.36259V1.40811C1.25 1.61228 1.38065 1.79355 1.57434 1.85811L2 2" stroke="#222222" stroke-width="0.351429" stroke-linecap="round"/>
<path d="M3 1.75L3.21964 1.53036C3.48622 1.26378 3.8112 1.06293 4.16885 0.943717V0.943717C4.45475 0.848416 4.75 1.06122 4.75 1.36259V1.40811C4.75 1.61228 4.61935 1.79355 4.42566 1.85811L4 2" stroke="#222222" stroke-width="0.351429" stroke-linecap="round"/>
</svg>
