<svg fill="none" height="6" viewBox="0 0 6 6" width="6" xmlns="http://www.w3.org/2000/svg">
    <path clip-rule="evenodd" d="M2.825 2H1.25C1.0143 2 0.896447 2 0.823223 2.07322C0.75 2.14645 0.75 2.2643 0.75 2.5V2.75C0.75 2.9857 0.75 3.10355 0.823223 3.17678C0.877267 3.23082 0.955621 3.24498 1.08772 3.24868H2.825V2ZM1.5 3.59868V4.75C1.5 4.9857 1.5 5.10355 1.57322 5.17678C1.64645 5.25 1.7643 5.25 2 5.25H2.825V3.59868H1.5ZM3.175 5.25H4C4.2357 5.25 4.35355 5.25 4.42678 5.17678C4.5 5.10355 4.5 4.9857 4.5 4.75V3.59868H3.175V5.25ZM4.91228 3.24868C5.04438 3.24498 5.12273 3.23082 5.17678 3.17678C5.25 3.10355 5.25 2.9857 5.25 2.75V2.5C5.25 2.2643 5.25 2.14645 5.17678 2.07322C5.10355 2 4.9857 2 4.75 2H3.175V3.24868H4.91228Z"
        fill="#222222"
        fill-rule="evenodd" />
    <path
        d="M4.75 1.15811V1.11259C4.75 0.811219 4.45475 0.598416 4.16885 0.693717C3.8112 0.812934 3.48622 1.01378 3.21964 1.28036L3 1.5V1.75H3.91886C3.9726 1.75 4.02599 1.74134 4.07698 1.72434L4.42566 1.60811C4.61935 1.54355 4.75 1.36228 4.75 1.15811Z"
        fill="#222222" />
    <path
        d="M1.25 1.15811V1.11259C1.25 0.811219 1.54525 0.598416 1.83115 0.693717C2.1888 0.812934 2.51378 1.01378 2.78036 1.28036L3 1.5V1.75H2.08114C2.0274 1.75 1.97401 1.74134 1.92302 1.72434L1.57434 1.60811C1.38065 1.54355 1.25 1.36228 1.25 1.15811Z"
        fill="#222222" />
</svg>
