<svg width="6" height="6" viewBox="0 0 6 6" fill="none" xmlns="http://www.w3.org/2000/svg">
<path d="M1.11267 3.47705L2.85083 5.10986C2.85772 5.11634 2.86117 5.11958 2.86424 5.12225C2.94212 5.18985 3.05788 5.18985 3.13577 5.12225C3.13884 5.11958 3.14229 5.11634 3.14918 5.10986L4.88734 3.47705C5.37638 3.01765 5.43577 2.26165 5.02446 1.73152L4.94712 1.63183C4.45507 0.997644 3.46741 1.104 3.12167 1.82841C3.07283 1.93074 2.92718 1.93074 2.87834 1.82841C2.5326 1.104 1.54493 0.997645 1.05289 1.63184L0.975551 1.73152C0.564241 2.26165 0.623628 3.01765 1.11267 3.47705Z" stroke="#222222" stroke-width="0.35"/>
</svg>
