<svg width="6" height="6" viewBox="0 0 6 6" fill="none" xmlns="http://www.w3.org/2000/svg">
<g clip-path="url(#clip0_10_11)">
<path d="M1.11267 3.47705L2.85083 5.10987C2.9107 5.1661 2.94063 5.19422 2.97593 5.20115C2.99183 5.20427 3.00818 5.20427 3.02408 5.20115C3.05938 5.19422 3.0893 5.1661 3.14918 5.10987L4.88732 3.47705C5.37637 3.01765 5.43575 2.26165 5.02445 1.73152L4.94712 1.63183C4.45507 0.997644 3.4674 1.104 3.12168 1.82841C3.07283 1.93074 2.92718 1.93074 2.87833 1.82841C2.5326 1.104 1.54493 0.997644 1.05289 1.63184L0.975548 1.73152C0.564238 2.26165 0.623625 3.01765 1.11267 3.47705Z" fill="#222222" stroke="#222222" stroke-width="0.5"/>
</g>
<defs>
<clipPath id="clip0_10_11">
<rect width="6" height="6" fill="white"/>
</clipPath>
</defs>
</svg>
