<svg width="6" height="6" viewBox="0 0 6 6" fill="none" xmlns="http://www.w3.org/2000/svg">
<path fill-rule="evenodd" clip-rule="evenodd" d="M0.75 3.00737C0.75 2.58224 0.75 2.36968 0.835936 2.18283C0.921872 1.99599 1.08326 1.85766 1.40604 1.58099L1.71915 1.31261L1.71915 1.31261C2.30257 0.812537 2.59428 0.5625 2.94176 0.5625C3.28924 0.5625 3.58095 0.812537 4.16437 1.31261L4.47747 1.58099C4.80025 1.85766 4.96164 1.99599 5.04758 2.18283C5.13351 2.36968 5.13351 2.58224 5.13351 3.00737V4.33507C5.13351 4.92547 5.13351 5.22067 4.9501 5.40409C4.77277 5.58141 4.49095 5.5873 3.93889 5.58749V4.02198C3.93889 3.73066 3.70273 3.49451 3.41142 3.49451H2.47209C2.18078 3.49451 1.94462 3.73066 1.94462 4.02198V5.58749C1.39256 5.5873 1.11074 5.58141 0.933415 5.40409C0.75 5.22067 0.75 4.92547 0.75 4.33507V3.00737Z" fill="#222222"/>
<path d="M2.36842 4.02631C2.36842 3.93911 2.43912 3.86842 2.52632 3.86842H3.39474C3.48194 3.86842 3.55263 3.93911 3.55263 4.02631V5.60526H2.36842V4.02631Z" fill="black" fill-opacity="0.56"/>
</svg>
