<svg width="6" height="6" viewBox="0 0 6 6" fill="none" xmlns="http://www.w3.org/2000/svg">
<path fill-rule="evenodd" clip-rule="evenodd" d="M0.835936 2.18283C0.75 2.36968 0.75 2.58224 0.75 3.00737V4.33507C0.75 4.92547 0.75 5.22067 0.933415 5.40409C1.11074 5.58141 1.39256 5.5873 1.94462 5.58749V4.02198C1.94462 3.73066 2.18078 3.49451 2.47209 3.49451H3.41142C3.70273 3.49451 3.93889 3.73066 3.93889 4.02198V5.58749C4.49095 5.5873 4.77277 5.58141 4.9501 5.40409C5.13351 5.22067 5.13351 4.92547 5.13351 4.33507V3.00737C5.13351 2.58224 5.13351 2.36968 5.04758 2.18283C4.96164 1.99599 4.80025 1.85766 4.47747 1.58099L4.16437 1.31261C3.58095 0.812537 3.28924 0.5625 2.94176 0.5625C2.59428 0.5625 2.30257 0.812537 1.71915 1.31261L1.40604 1.58099C1.08326 1.85766 0.921872 1.99599 0.835936 2.18283ZM3.51016 5.5875V4.02198C3.51016 3.96744 3.46595 3.92323 3.41142 3.92323H2.47209C2.41756 3.92323 2.37335 3.96744 2.37335 4.02198V5.5875H3.51016Z" fill="#222222"/>
</svg>
