<svg fill="none" height="6" viewBox="0 0 6 6" width="6" xmlns="http://www.w3.org/2000/svg">
    <path
        d="M1.02439 2.90236C1.02439 2.49947 1.02439 2.29803 1.10583 2.12096C1.18727 1.94388 1.34022 1.81279 1.64612 1.55059L1.94285 1.29625C2.49576 0.822325 2.77221 0.585365 3.10152 0.585365C3.43082 0.585365 3.70728 0.822325 4.26019 1.29625L4.55692 1.55059C4.86282 1.81279 5.01576 1.94388 5.09721 2.12096C5.17865 2.29803 5.17865 2.49947 5.17865 2.90236V4.16063C5.17865 4.72015 5.17865 4.99991 5.00483 5.17374C4.831 5.34756 4.55124 5.34756 3.99172 5.34756H2.21132C1.6518 5.34756 1.37204 5.34756 1.19821 5.17374C1.02439 4.99991 1.02439 4.72015 1.02439 4.16063V2.90236Z"
        stroke="#222222" stroke-width="0.356079" />
    <path
        d="M3.84335 5.34756V3.86389C3.84335 3.70001 3.7105 3.56716 3.54662 3.56716H2.65642C2.49254 3.56716 2.35969 3.70001 2.35969 3.86389V5.34756"
        stroke="#222222" stroke-linecap="round" stroke-linejoin="round" stroke-width="0.356079" />
</svg>
