<svg fill="none" height="6" viewBox="0 0 6 6" width="6" xmlns="http://www.w3.org/2000/svg">
    <path clip-rule="evenodd" d="M3.04419 4.60689C3.45395 4.39435 4.86842 3.5603 4.86842 2.17421C4.86842 1.10598 4.00244 0.24 2.93421 0.24C1.86598 0.24 1 1.10598 1 2.17421C1 3.5603 2.41447 4.39435 2.82423 4.60689C2.8941 4.64313 2.97432 4.64313 3.04419 4.60689ZM2.93421 3.00316C3.39203 3.00316 3.76316 2.63203 3.76316 2.17421C3.76316 1.7164 3.39203 1.34526 2.93421 1.34526C2.4764 1.34526 2.10527 1.7164 2.10527 2.17421C2.10527 2.63203 2.4764 3.00316 2.93421 3.00316Z"
        fill="#222222"
        fill-rule="evenodd" />
    <path
        d="M4.76531 4.54808C4.95181 4.66209 5.05 4.79142 5.05 4.92308C5.05 5.05473 4.95181 5.18406 4.76531 5.29808C4.5788 5.41209 4.31054 5.50677 3.9875 5.5726C3.66446 5.63842 3.29802 5.67308 2.925 5.67308C2.55199 5.67308 2.18554 5.63842 1.8625 5.5726C1.53946 5.50677 1.27121 5.41209 1.0847 5.29808C0.898191 5.18406 0.800003 5.05473 0.800003 4.92308C0.800003 4.79142 0.898191 4.66209 1.0847 4.54808"
        stroke="#222222" stroke-linecap="round" stroke-width="0.35" />
</svg>
