<svg width="6" height="6" viewBox="0 0 6 6" fill="none" xmlns="http://www.w3.org/2000/svg">
<path d="M4.88838 4.54808C5.07489 4.66209 5.17308 4.79142 5.17308 4.92308C5.17308 5.05473 5.07489 5.18406 4.88838 5.29808C4.70188 5.41209 4.43362 5.50677 4.11058 5.5726C3.78754 5.63842 3.4211 5.67308 3.04808 5.67308C2.67507 5.67308 2.30862 5.63842 1.98558 5.5726C1.66254 5.50677 1.39428 5.41209 1.20778 5.29808C1.02127 5.18406 0.92308 5.05473 0.92308 4.92308C0.92308 4.79142 1.02127 4.66209 1.20778 4.54808" stroke="#222222" stroke-width="0.35" stroke-linecap="round"/>
<path d="M4.92308 2.33654C4.92308 3.59104 3.551 4.43721 3.1543 4.65564C3.08729 4.69254 3.00887 4.69254 2.94186 4.65564C2.54516 4.43721 1.17308 3.59104 1.17308 2.33654C1.17308 1.21154 2.08158 0.461539 3.04808 0.461539C4.04808 0.461539 4.92308 1.21154 4.92308 2.33654Z" stroke="#222222" stroke-width="0.35"/>
<circle cx="3.04808" cy="2.33654" r="0.825" stroke="#222222" stroke-width="0.35"/>
</svg>
