<svg fill="none" height="6" viewBox="0 0 6 6" width="6" xmlns="http://www.w3.org/2000/svg">
    <path
        d="M0.875 1.875C0.875 1.52497 0.875 1.34995 0.943121 1.21626C1.00304 1.09865 1.09865 1.00304 1.21626 0.943121C1.34995 0.875 1.52497 0.875 1.875 0.875H4.125C4.47503 0.875 4.65005 0.875 4.78374 0.943121C4.90135 1.00304 4.99696 1.09865 5.05688 1.21626C5.125 1.34995 5.125 1.52497 5.125 1.875V4.125C5.125 4.47503 5.125 4.65005 5.05688 4.78374C4.99696 4.90135 4.90135 4.99696 4.78374 5.05688C4.65005 5.125 4.47503 5.125 4.125 5.125H1.875C1.52497 5.125 1.34995 5.125 1.21626 5.05688C1.09865 4.99696 1.00304 4.90135 0.943121 4.78374C0.875 4.65005 0.875 4.47503 0.875 4.125V1.875Z"
        stroke="#222222" stroke-width="0.41" />
    <circle cx="2.125" cy="2.875" r="0.42" stroke="#222222" stroke-width="0.41" />
    <path
        d="M2.625 2.875H3.875M4.375 3.375V2.9125C4.375 2.89179 4.35821 2.875 4.3375 2.875H3.875M3.875 2.875V3.375"
        stroke="#222222" stroke-linecap="round" stroke-width="0.41" />
</svg>
