<svg fill="none" height="6" viewBox="0 0 6 6" width="6" xmlns="http://www.w3.org/2000/svg">
    <path
        d="M5.5 3L5.63665 3.10932L5.72411 3L5.63665 2.89068L5.5 3ZM2.5 2.825C2.40335 2.825 2.325 2.90335 2.325 3C2.325 3.09665 2.40335 3.175 2.5 3.175L2.5 2.825ZM4.63665 4.35932L5.63665 3.10932L5.36334 2.89068L4.36334 4.14068L4.63665 4.35932ZM5.63665 2.89068L4.63665 1.64068L4.36334 1.85932L5.36334 3.10932L5.63665 2.89068ZM5.5 2.825L2.5 2.825L2.5 3.175L5.5 3.175L5.5 2.825Z"
        fill="#222222" />
    <path
        d="M3.5 3.96702L3.5 4.01581C3.5 4.28273 3.5 4.41619 3.46708 4.52945C3.40138 4.7555 3.24261 4.94292 3.03043 5.04489C2.92413 5.09598 2.79248 5.11792 2.52919 5.1618V5.1618C1.9968 5.25053 1.7306 5.2949 1.51503 5.25474C1.08292 5.17425 0.725484 4.87145 0.575044 4.45845C0.499996 4.25243 0.499996 3.98255 0.499996 3.44281L0.499996 2.55719C0.499996 2.01745 0.499996 1.74757 0.575044 1.54155C0.725484 1.12855 1.08292 0.825753 1.51503 0.745256C1.7306 0.7051 1.99695 0.749492 2.52965 0.838276V0.838276C2.79244 0.882075 2.92384 0.903974 3.02992 0.954867C3.24252 1.05686 3.40158 1.24462 3.46723 1.4711C3.5 1.5841 3.5 1.71724 3.5 1.98351V1.98351"
        stroke="#222222" stroke-width="0.35" />
</svg>
