<svg fill="none" height="6" viewBox="0 0 6 6" width="6" xmlns="http://www.w3.org/2000/svg">
    <circle cx="3.00001" cy="3" r="2.25" stroke="#222222" stroke-width="0.35" />
    <path
        d="M3.21177 4.45728C3.21177 4.56774 3.12222 4.65728 3.01177 4.65728C2.90131 4.65728 2.81177 4.56774 2.81177 4.45728C2.81177 4.34683 2.90131 4.25728 3.01177 4.25728C3.12222 4.25728 3.21177 4.34683 3.21177 4.45728Z"
        fill="#222222" />
    <path
        d="M3 4V3.7858C3 3.60725 3.08924 3.4405 3.23781 3.34146L3.38743 3.24172C3.61394 3.0907 3.75 2.83647 3.75 2.56423V2.5C3.75 2.08578 3.41422 1.75 3 1.75V1.75C2.58579 1.75 2.25 2.08578 2.25 2.5V2.5"
        stroke="#222222" stroke-width="0.35" />
</svg>
