<svg width="6" height="6" viewBox="0 0 6 6" fill="none" xmlns="http://www.w3.org/2000/svg">
<path d="M0.948031 3.80541C0.729039 3.41174 0.619543 3.2149 0.619543 3C0.619543 2.78509 0.729039 2.58826 0.948032 2.19458L1.10773 1.9075L1.2765 1.62565C1.50794 1.23916 1.62366 1.04592 1.80977 0.938465C1.99588 0.831013 2.2211 0.827421 2.67152 0.820237L3 0.814998L3.32847 0.820237C3.7789 0.827421 4.00411 0.831012 4.19022 0.938465C4.37634 1.04592 4.49205 1.23916 4.72349 1.62565L4.89226 1.9075L5.05196 2.19458C5.27095 2.58826 5.38045 2.78509 5.38045 3C5.38045 3.2149 5.27095 3.41174 5.05196 3.80541L4.89226 4.0925L4.72349 4.37434C4.49205 4.76083 4.37634 4.95408 4.19022 5.06153C4.00411 5.16898 3.7789 5.17258 3.32847 5.17976L3 5.185L2.67152 5.17976C2.2211 5.17258 1.99588 5.16898 1.80977 5.06153C1.62366 4.95408 1.50794 4.76083 1.2765 4.37434L1.10773 4.0925L0.948031 3.80541Z" stroke="#222222" stroke-width="0.35"/>
<circle cx="2.99999" cy="3" r="0.75" stroke="#222222" stroke-width="0.35"/>
</svg>
