<svg width="6" height="6" viewBox="0 0 6 6" fill="none" xmlns="http://www.w3.org/2000/svg">
<path d="M3.12374 4.37626C3.19209 4.4446 3.19209 4.5554 3.12374 4.62374C3.0554 4.69209 2.9446 4.69209 2.87626 4.62374L3.12374 4.37626ZM1.5 3L1.37626 3.12374L1.25251 3L1.37626 2.87626L1.5 3ZM2.87626 1.37626C2.9446 1.30791 3.0554 1.30791 3.12374 1.37626C3.19209 1.4446 3.19209 1.5554 3.12374 1.62374L2.87626 1.37626ZM2.87626 4.62374L1.37626 3.12374L1.62374 2.87626L3.12374 4.37626L2.87626 4.62374ZM1.37626 2.87626L2.87626 1.37626L3.12374 1.62374L1.62374 3.12374L1.37626 2.87626Z" fill="#222222"/>
<path d="M4.62374 4.37626C4.69209 4.4446 4.69209 4.5554 4.62374 4.62374C4.5554 4.69209 4.4446 4.69209 4.37626 4.62374L4.62374 4.37626ZM3 3L2.87626 3.12374L2.75251 3L2.87626 2.87626L3 3ZM4.37626 1.37626C4.4446 1.30791 4.5554 1.30791 4.62374 1.37626C4.69209 1.4446 4.69209 1.5554 4.62374 1.62374L4.37626 1.37626ZM4.37626 4.62374L2.87626 3.12374L3.12374 2.87626L4.62374 4.37626L4.37626 4.62374ZM2.87626 2.87626L4.37626 1.37626L4.62374 1.62374L3.12374 3.12374L2.87626 2.87626Z" fill="#222222"/>
</svg>
