<svg width="88" height="88" viewBox="0 0 88 88" fill="none" xmlns="http://www.w3.org/2000/svg">
<path fill-rule="evenodd" clip-rule="evenodd" d="M57.9435 23.6649C57.8856 23.6682 57.8273 23.6699 57.7687 23.6699C56.1027 23.6701 54.7533 22.3198 54.7548 20.6538L54.7577 17.3055H16.678C11.0216 17.3055 8.1934 17.3055 6.08768 18.5253C4.72126 19.3168 3.58539 20.4519 2.79288 21.8177C1.57158 23.9226 1.56952 26.7507 1.56542 32.4071L1.56431 33.9286C1.56398 34.3891 1.56381 34.6193 1.58877 34.8127C1.76406 36.1707 2.83218 37.2396 4.19006 37.4159C4.38338 37.441 4.61363 37.441 5.07413 37.441H8.89943C12.6063 37.441 15.6091 40.4459 15.6064 44.1528C15.6037 47.8596 12.5965 50.8646 8.88968 50.8646H5.06439C4.60389 50.8646 4.37364 50.8646 4.18028 50.8897C2.82215 51.0659 1.75247 52.1348 1.57521 53.4929C1.54997 53.6862 1.54981 53.9164 1.54947 54.3769L1.54837 55.8984C1.54426 61.5548 1.54221 64.383 2.76046 66.4878C3.55099 67.8537 4.68521 68.9887 6.05048 69.7802C8.15443 71 10.9826 71 16.639 71H54.7102L54.7102 70.9923L54.7132 67.6364C54.7147 65.9704 56.0664 64.6196 57.7324 64.6194C57.7909 64.6194 57.8489 64.621 57.9065 64.6243L57.9132 57.224C57.8555 57.2272 57.7974 57.2289 57.739 57.2289C56.073 57.2292 54.7236 55.8788 54.7251 54.2128L54.728 50.8569C54.7295 49.1909 56.0813 47.8401 57.7473 47.8399C57.8058 47.8399 57.8639 47.8415 57.9216 47.8448L57.9283 40.4444C57.8706 40.4477 57.8124 40.4494 57.7538 40.4494C56.0878 40.4497 54.7384 39.0993 54.7399 37.4333L54.7429 34.0774C54.7444 32.4114 56.0961 31.0606 57.7621 31.0603C57.8208 31.0603 57.879 31.062 57.9368 31.0653L57.9435 23.6649Z" fill="#222222"/>
<path fill-rule="evenodd" clip-rule="evenodd" d="M60.8314 70.8484L60.8348 67.5917C60.8365 65.9257 59.4873 64.5751 57.8213 64.5751C57.8213 64.5751 57.8212 64.5751 57.8212 64.5751L57.8288 57.1847C57.8288 57.1847 57.8289 57.1847 57.8289 57.1847C59.4949 57.1847 60.8469 55.8341 60.8486 54.1681L60.8521 50.8122C60.8538 49.1462 59.5046 47.7956 57.8386 47.7956C57.8386 47.7956 57.8385 47.7956 57.8385 47.7956L57.8461 40.4052C57.8461 40.4052 57.8462 40.4052 57.8462 40.4052C59.5122 40.4052 60.8642 39.0546 60.8659 37.3886L60.8694 34.0327C60.8711 32.3667 59.5219 31.0161 57.8559 31.0161C57.8558 31.0161 57.8558 31.0161 57.8558 31.0161L57.8634 23.6256C57.8634 23.6256 57.8635 23.6256 57.8635 23.6256C59.5295 23.6256 60.8815 22.2751 60.8832 20.6091L60.8866 17.2532C60.8867 17.22 60.8862 17.1869 60.8851 17.154H70.8673C76.5237 17.154 79.3518 17.154 81.4554 18.3738C82.8204 19.1653 83.9543 20.3003 84.7444 21.6662C85.962 23.771 85.9591 26.5992 85.9533 32.2556L85.9517 33.777C85.9512 34.2375 85.951 34.4678 85.9257 34.6611C85.748 36.0191 84.678 37.088 83.3199 37.2643C83.1265 37.2894 82.8962 37.2894 82.4357 37.2894H78.6104C74.9036 37.2894 71.8955 40.2944 71.8917 44.0012C71.8879 47.708 74.8898 50.713 78.5966 50.713H82.4219C82.8824 50.713 83.1127 50.713 83.306 50.7381C84.6638 50.9144 85.7316 51.9833 85.9065 53.3413C85.9314 53.5346 85.9311 53.7649 85.9307 54.2254L85.9291 55.7469C85.9233 61.4032 85.9203 64.2314 84.6984 66.3363C83.9055 67.7021 82.7693 68.8371 81.4026 69.6287C79.3581 70.8128 76.6331 70.8474 71.3011 70.8484H60.8314Z" fill="#222222" fill-opacity="0.56"/>
</svg>
